PathFileType	4	(X/Y/Z)	C:\Users\Basilio\Documents\Thesis Gigler\squatting_fais\c3dfiles\077\SJ_pre5\markers_experimental.trc
DataRate	CameraRate	NumFrames	NumMarkers	Units	OrigDataRate	OrigDataStartFrame	OrigNumFrames
200.000000	200.000000	4	60	mm	200.000000	1186	1356
Frame#	Time	FHD			LBHD			RBHD			C7			T10			CLAV			LSHO			LUUPA			LMUPA			LDUPA			LLEP			LMEP			LRAD			LUL			LRFIN			RSHO			RUPA1			RMUPA			RDUPA			RLEP			RMEP			RRAD			RUL			RUFIN			LASI			RASI			USACR			LSACR			RSACR			LTHI2			LTHI3			LTHI4			LLFC			LMFC			LTIB1			LTIB2			LTIB3			LTIB4			LLMAL			LHEE			LMT1			LMT2			LMT5			RTHI			RTHI2			RTHI3			RTHI4			RLFC			RMFC			RTIB1			RTIB2			RTIB3			RTIB4			RLMAL			RMMAL			RHEE			RMT1			RMT2			RMT5			LTHI1			
		X1	Y1	Z1	X2	Y2	Z2	X3	Y3	Z3	X4	Y4	Z4	X5	Y5	Z5	X6	Y6	Z6	X7	Y7	Z7	X8	Y8	Z8	X9	Y9	Z9	X10	Y10	Z10	X11	Y11	Z11	X12	Y12	Z12	X13	Y13	Z13	X14	Y14	Z14	X15	Y15	Z15	X16	Y16	Z16	X17	Y17	Z17	X18	Y18	Z18	X19	Y19	Z19	X20	Y20	Z20	X21	Y21	Z21	X22	Y22	Z22	X23	Y23	Z23	X24	Y24	Z24	X25	Y25	Z25	X26	Y26	Z26	X27	Y27	Z27	X28	Y28	Z28	X29	Y29	Z29	X30	Y30	Z30	X31	Y31	Z31	X32	Y32	Z32	X33	Y33	Z33	X34	Y34	Z34	X35	Y35	Z35	X36	Y36	Z36	X37	Y37	Z37	X38	Y38	Z38	X39	Y39	Z39	X40	Y40	Z40	X41	Y41	Z41	X42	Y42	Z42	X43	Y43	Z43	X44	Y44	Z44	X45	Y45	Z45	X46	Y46	Z46	X47	Y47	Z47	X48	Y48	Z48	X49	Y49	Z49	X50	Y50	Z50	X51	Y51	Z51	X52	Y52	Z52	X53	Y53	Z53	X54	Y54	Z54	X55	Y55	Z55	X56	Y56	Z56	X57	Y57	Z57	X58	Y58	Z58	X59	Y59	Z59	X60	Y60	Z60	

1187	5.93	-160.4468688964844	1826.435302734375	-934.8404541015627	-297.5783996582032	1713.170776367188	-1003.794189453125	-305.6927185058594	1711.08154296875	-857.9446411132815	-359.7847290039063	1580.495727539063	-933.8062133789065	-395.4515075683595	1250.79345703125	-930.0332031250002	-193.3639068603516	1518.48193359375	-928.197937011719	-253.1931457519532	1549.21044921875	-1119.227783203125	-285.0886230468751	1413.47119140625	-1287.763671875	-250.0892639160157	1376.2177734375	-1289.09765625	-288.4981079101563	1362.699462890625	-1333.737548828125	-282.0650939941407	1300.12255859375	-1366.17529296875	-362.9976196289063	1279.240966796875	-1340.999267578125	-284.9052734375001	1075.669311523438	-1157.374267578125	-237.9046630859376	1029.64501953125	-1205.291137695313	-244.0808563232422	1054.556030273438	-1096.22314453125	-229.2013549804688	1552.669311523438	-738.0866088867189	-297.4883117675782	1420.458129882813	-562.7655029296876	-272.0510864257813	1376.789794921875	-563.4029541015626	-313.1121215820313	1365.388916015625	-520.9361572265626	-318.0509033203126	1300.070922851563	-493.8646240234376	-401.2734985351564	1288.811401367188	-523.8378906250001	-320.9522399902344	1073.965576171875	-682.1756591796876	-262.7453918457032	1039.2783203125	-640.6065673828126	-267.1475830078126	1070.416625976563	-736.5034790039064	-217.731430053711	1035.522705078125	-1060.485229492188	-232.0504913330079	1046.337158203125	-787.3315429687502	-418.2364807128907	1150.145629882813	-926.8305664062502	-426.7918090820314	1121.136596679688	-955.7308349609377	-432.0492553710939	1119.927856445313	-900.3414306640627	-321.7547912597657	763.9406738281251	-1162.581176757813	-272.9165649414063	758.9718627929689	-1160.285400390625	-355.7229614257813	713.6630249023439	-1152.569458007813	-343.3112182617188	564.1589965820314	-1158.086181640625	-320.5691833496094	515.2779541015626	-1035.40966796875	-342.8095092773438	330.6942443847657	-1140.658081054688	-391.8601989746095	307.4446411132813	-1212.484008789063	-356.4138183593751	293.7338562011719	-1185.336791992188	-373.4851379394532	211.5240325927735	-1169.6328125	-462.4010009765626	114.4885787963867	-1221.154907226563	-508.1040954589845	56.2661476135254	-1167.999145507813	-295.5140380859376	55.78506088256837	-1214.549926757813	-306.5812377929688	60.834774017334	-1255.142211914063	-415.1634826660157	104.7084274291992	-1145.4375	-365.5441589355469	735.1867065429689	-693.5366210937501	-331.5417785644532	678.9351196289064	-674.7613525390626	-297.6058654785157	677.9747314453126	-674.0651245117189	-359.3427429199219	603.0600585937501	-686.1631469726564	-356.6565246582032	535.7295532226564	-676.4590454101564	-300.5296936035157	500.7274475097657	-788.3704223632815	-319.1434631347657	395.579803466797	-662.7683105468751	-397.5048828125001	329.3551025390626	-634.6210937500001	-351.8509826660157	317.7244262695313	-642.9475097656251	-346.7304992675782	267.7703857421876	-675.4556884765626	-447.2234191894532	104.4729843139649	-628.7355346679689	-397.4265441894532	94.3148651123047	-707.4135742187501	-493.0769348144532	50.13907623291017	-694.2371215820314	-281.9088439941407	59.50358963012697	-608.7956542968751	-297.5115661621094	61.33729934692384	-574.9040527343751	-328.9787597656251	42.07355880737305	-533.5681152343751	-338.8031616210938	845.9526977539065	-1148.03955078125	
1188	5.935	-160.6419830322266	1826.283325195313	-934.5261230468752	-298.0892333984376	1713.364135742188	-1003.662963867188	-306.1939392089844	1711.294067382813	-857.8458251953127	-360.2777099609376	1580.617797851563	-933.734069824219	-395.7362365722657	1250.732788085938	-929.9802246093752	-193.9016571044922	1518.751953125	-928.194519042969	-253.8581237792969	1549.385375976563	-1119.235717773438	-285.7736816406251	1413.758911132813	-1287.802124023438	-250.3785400390626	1376.314453125	-1289.2109375	-289.5579223632813	1363.108032226563	-1333.742065429688	-282.7366333007813	1300.316162109375	-1366.193969726563	-363.6442565917969	1279.496826171875	-1340.974365234375	-284.9206848144532	1075.83837890625	-1157.406860351563	-237.939926147461	1029.934692382813	-1205.386962890625	-244.2286987304688	1054.740844726563	-1096.298461914063	-229.8793182373047	1552.755126953125	-738.1173095703126	-298.0354919433594	1420.602661132813	-562.8194580078126	-272.5464172363282	1377.032592773438	-563.4923095703126	-313.7118835449219	1365.492919921875	-521.0513916015626	-318.6055603027344	1300.161865234375	-493.9280090332032	-401.786834716797	1288.780639648438	-523.9307250976564	-320.9920349121094	1074.074340820313	-682.1893310546876	-262.3028564453126	1039.786987304688	-640.0949707031251	-267.1270141601563	1070.577514648438	-736.5086669921876	-217.9003448486329	1035.688842773438	-1060.36669921875	-231.9695434570313	1046.524658203125	-787.2954711914065	-418.3345947265626	1149.939819335938	-926.8381958007815	-426.7658996582032	1120.965454101563	-955.809020996094	-432.2121582031251	1119.640747070313	-900.3416137695315	-321.9409484863282	763.9484252929689	-1162.45947265625	-273.0679321289063	759.0532836914064	-1160.322265625	-356.1429138183594	713.8217773437501	-1152.41796875	-343.6630554199219	564.3441772460939	-1157.865600585938	-320.8564147949219	515.3196411132814	-1035.265258789063	-343.2942199707032	330.9533081054688	-1140.811889648438	-392.1055603027345	307.5901489257813	-1212.359008789063	-356.5305175781251	293.6669006347657	-1185.285766601563	-373.5822143554688	211.5992126464844	-1169.591918945313	-462.5126953125001	114.5040359497071	-1221.073608398438	-508.1022033691407	56.29600906372072	-1168.000244140625	-295.5692443847657	55.83056640625001	-1214.55908203125	-306.5796508789063	60.8396453857422	-1255.161987304688	-415.1522521972657	104.7976455688477	-1145.43310546875	-365.6907043457032	735.2733764648439	-693.7119140625001	-331.7603454589844	679.0148925781251	-674.9096069335939	-297.8736267089844	677.9841308593751	-674.1447143554689	-359.7166137695313	603.0858154296876	-686.4129638671876	-356.9571228027344	535.7647094726564	-676.6754760742189	-300.4341735839844	500.7785034179689	-788.3991699218752	-319.3863220214844	395.6870422363282	-662.8606567382814	-397.6755371093751	329.4065246582032	-634.7421875000001	-352.0346374511719	317.7797241210938	-642.9909057617189	-346.7618103027344	267.8091430664063	-675.4847412109376	-447.263397216797	104.4612655639649	-628.8292236328126	-397.4449462890626	94.34735107421876	-707.4476318359376	-493.0406188964845	50.15307617187501	-694.3090820312501	-281.9137878417969	59.54078674316408	-608.7944335937501	-297.5137939453126	61.35743713378908	-574.8865356445314	-328.9778747558594	42.04402542114259	-533.5761108398439	-338.9307861328126	846.1024169921877	-1147.974731445313	
1189	5.94	-161.0927886962891	1826.307739257813	-934.3909912109377	-298.5470275878907	1713.67626953125	-1003.476257324219	-306.6494445800782	1711.490478515625	-857.7673950195315	-360.6821289062501	1580.629516601563	-933.6209716796877	-396.0279846191407	1250.802978515625	-929.965026855469	-194.2182922363282	1518.85693359375	-928.0566406250002	-254.4271240234376	1549.600463867188	-1119.192016601563	-286.4782409667969	1414.00341796875	-1287.829345703125	-251.2196655273438	1376.58056640625	-1288.9306640625	-290.5008544921876	1363.352172851563	-1333.776123046875	-283.3922119140626	1300.52392578125	-1366.248046875	-364.2587585449219	1279.744140625	-1340.92138671875	-285.0053710937501	1076.01513671875	-1157.469970703125	-238.1292572021485	1030.380126953125	-1205.529174804688	-244.3732452392579	1055.005859375	-1096.294311523438	-230.5382385253907	1552.868530273438	-738.1004028320314	-298.7311706542969	1420.62548828125	-562.8621215820314	-273.0706176757813	1377.45654296875	-563.5180664062501	-314.2061157226563	1365.518920898438	-521.1527099609376	-319.0727233886719	1300.208618164063	-493.8954467773439	-401.8407287597657	1288.677978515625	-524.2736816406251	-320.9798583984376	1074.11474609375	-682.2648315429689	-262.2969055175782	1040.013793945313	-640.0991210937501	-267.0736999511719	1070.737548828125	-736.5191650390626	-218.0434875488282	1035.912231445313	-1060.266235351563	-231.8652343750001	1046.817260742188	-787.3070068359377	-418.4925231933595	1149.690185546875	-926.8328857421877	-427.0659179687501	1120.953857421875	-955.7520751953127	-432.2944335937501	1119.38427734375	-900.3504638671877	-322.1527404785157	764.1168212890626	-1162.339111328125	-273.2625122070313	759.0762939453126	-1160.243408203125	-356.2581787109376	713.8773193359376	-1152.2626953125	-344.3277587890626	564.2241821289064	-1157.883056640625	-321.1878662109376	515.4283447265626	-1035.088623046875	-343.8176574707032	331.2239685058594	-1140.943237304688	-392.3862609863282	307.7147827148438	-1212.223510742188	-356.8103027343751	293.8403625488282	-1185.234252929688	-373.6808776855469	211.8312988281251	-1169.542846679688	-462.5343322753907	114.5175857543946	-1220.944702148438	-508.0491027832032	56.3093605041504	-1167.882202148438	-295.5603332519532	55.82096099853517	-1214.566284179688	-306.5505676269532	60.85280227661134	-1255.113891601563	-415.1123046875001	104.8587112426758	-1145.41455078125	-365.8284301757813	735.3673095703126	-693.8638916015626	-332.0313720703126	679.0471191406251	-675.0440063476564	-298.1058044433594	678.0508422851564	-674.2230834960939	-359.9558715820313	603.1856689453126	-686.5596313476564	-357.3265991210938	535.8182983398439	-676.8655395507814	-301.8479309082032	500.919403076172	-788.942077636719	-319.5917663574219	395.7947998046876	-662.9981079101564	-397.8768920898439	329.4405517578126	-634.9014892578126	-352.2023010253907	317.8944396972657	-643.0369873046876	-346.9156799316407	267.9021301269532	-675.5968017578126	-447.2977905273439	104.4888458251953	-628.8896484375001	-397.3929748535157	94.37393951416017	-707.4345092773439	-492.9824218750001	50.17538833618165	-694.3818359375001	-281.8595886230469	59.5542678833008	-608.7711181640626	-297.5166931152344	61.34163284301759	-574.8840942382814	-328.9607849121094	42.0266456604004	-533.5654296875001	-338.6725463867188	846.161804199219	-1147.940063476563	
1190	5.945	-161.5957183837891	1826.597534179688	-934.2890625000002	-298.9657592773438	1713.912475585938	-1003.388488769531	-307.1071166992188	1711.668701171875	-857.6301879882815	-361.1577758789063	1580.734008789063	-933.5449218750002	-396.2510681152345	1250.984497070313	-929.9896240234377	-194.8501892089844	1519.173950195313	-928.2603149414065	-254.9575195312501	1549.843505859375	-1119.052368164063	-286.9854125976563	1414.15576171875	-1287.775268554688	-251.4651184082032	1376.737915039063	-1288.945556640625	-290.8946228027344	1363.45263671875	-1333.681030273438	-284.2568054199219	1300.869384765625	-1366.39404296875	-364.7226562500001	1279.843994140625	-1340.781860351563	-285.0874328613282	1076.242309570313	-1157.510131835938	-238.2205657958985	1030.684936523438	-1205.648315429688	-244.335433959961	1055.26953125	-1096.31884765625	-231.1126708984376	1553.089111328125	-738.1307373046876	-299.2611083984376	1420.739868164063	-562.8591308593751	-273.5726013183594	1377.599609375	-563.4797363281251	-314.8047485351563	1365.573608398438	-521.1389160156251	-319.5361938476563	1300.427368164063	-493.9340209960939	-402.3606262207032	1288.58544921875	-524.4353027343751	-322.3359680175782	1073.813354492188	-682.1081542968751	-262.2755126953126	1040.220825195313	-640.0836791992189	-267.0725097656251	1070.880493164063	-736.5267944335939	-217.9674987792969	1036.215698242188	-1060.359741210938	-231.7955322265626	1047.06298828125	-787.3615722656252	-418.6033020019532	1149.53271484375	-926.817321777344	-427.0374755859376	1120.556762695313	-955.6984863281252	-432.3887023925782	1119.310302734375	-900.3687744140627	-322.2805175781251	764.1546630859376	-1162.259643554688	-273.4352416992188	759.0477905273439	-1160.242065429688	-356.5662841796876	714.0524291992189	-1152.0693359375	-344.6831665039063	564.3982543945314	-1157.616333007813	-321.5510864257813	515.4917602539064	-1034.891479492188	-343.6917419433594	331.2306823730469	-1140.665283203125	-392.6926574707032	307.8483886718751	-1212.142333984375	-357.0559387207032	294.0071716308594	-1185.102905273438	-373.8177490234376	211.8756866455079	-1169.5205078125	-462.450653076172	114.5405960083008	-1220.873901367188	-508.0093078613282	56.30990982055665	-1167.814208984375	-295.5476989746094	55.87733840942384	-1214.574829101563	-306.6926879882813	60.86010742187501	-1255.175048828125	-415.0903320312501	104.8553924560547	-1145.387451171875	-366.0116577148438	735.4967651367189	-694.0126953125001	-332.2728576660157	679.1304321289064	-675.1466674804689	-298.3972167968751	678.1915283203126	-674.2576904296876	-360.2543640136719	603.3393554687501	-686.7331542968751	-357.6858825683594	535.9271850585939	-677.1401367187501	-302.0331726074219	501.0440979003907	-789.1025390625002	-319.8509521484376	395.9564819335939	-663.0745849609376	-398.1445922851564	329.5241699218751	-635.0278320312501	-352.4467773437501	317.9620056152344	-643.1226196289064	-347.0884704589844	267.9242858886719	-675.5691528320314	-447.3904418945314	104.4301681518555	-628.9732666015626	-397.3081359863282	94.31904602050783	-707.5455932617189	-492.987274169922	50.20649337768556	-694.4091186523439	-281.8586425781251	59.50304412841798	-608.8102416992189	-297.5040283203126	61.37609481811525	-574.8599243164064	-328.9712829589844	42.04095458984376	-533.5645141601564	-338.9531250000001	846.2841796875002	-1147.86962890625	
